<svg xmlns="http://www.w3.org/2000/svg" width="100" height="100" viewBox="0 0 100 100"><rect width="100%" height="100%" fill="#DDDDDD"/><path fill="#999999" d="M32.35 42.04h1.82v13.01h-2.13v-8.41q0-.5.06-1.09l-3.94 7.39q-.28.53-.85.53h-.34q-.58 0-.86-.53l-3.98-7.41q.03.29.05.58t.02.53v8.41h-2.14V42.04h2.11q.12.01.21.05t.17.12.15.21l3.9 7.23q.15.29.28.59.13.31.26.63.12-.33.26-.64.13-.31.29-.6l3.84-7.21q.07-.13.15-.21t.18-.12q.09-.04.21-.05zm4.44 3.78h2.24v9.23h-2.24zm2.54-2.7q0 .29-.11.54-.12.26-.32.45-.19.18-.45.3-.26.11-.56.11-.29 0-.54-.11-.26-.12-.45-.3-.19-.19-.3-.45-.11-.25-.11-.54t.11-.55.3-.45.45-.3q.25-.12.54-.12.3 0 .56.12.26.11.45.3.2.19.32.45.11.26.11.55m8.1 3.69-.5.81q-.09.14-.19.2t-.25.06q-.16 0-.35-.09-.18-.09-.43-.21-.24-.11-.55-.2t-.73-.09q-.66 0-1.03.28-.38.28-.38.73 0 .3.2.5.19.2.51.35.32.16.72.28.41.12.83.26.42.15.82.33.41.19.72.47.32.28.52.68.19.4.19.95 0 .67-.24 1.23-.24.57-.7.98-.47.4-1.16.63t-1.59.23q-.48 0-.93-.08-.45-.09-.87-.24t-.78-.36q-.35-.21-.62-.45l.51-.85q.1-.15.23-.23.14-.08.35-.08.2 0 .39.12.18.11.43.25.24.13.57.25t.83.12q.4 0 .68-.1.28-.09.47-.25.18-.15.27-.35.08-.2.08-.42 0-.32-.19-.53t-.51-.36-.73-.27q-.41-.13-.84-.27t-.84-.34q-.41-.19-.73-.49t-.51-.73-.19-1.04q0-.57.22-1.08.23-.51.66-.9.44-.38 1.09-.61.66-.23 1.51-.23.95 0 1.74.32.78.31 1.3.82m7.91 0-.5.81q-.09.14-.19.2t-.25.06q-.16 0-.35-.09-.18-.09-.43-.21-.24-.11-.55-.2t-.73-.09q-.66 0-1.03.28-.38.28-.38.73 0 .3.2.5.19.2.51.35.32.16.72.28.41.12.83.26.42.15.82.33.41.19.73.47t.51.68.19.95q0 .67-.24 1.23-.23.57-.7.98-.47.4-1.16.63t-1.59.23q-.47 0-.93-.08-.45-.09-.87-.24t-.78-.36q-.35-.21-.62-.45l.51-.85q.1-.15.24-.23.13-.08.34-.08.2 0 .39.12.18.11.43.25.24.13.57.25t.83.12q.4 0 .68-.1.28-.09.47-.25.18-.15.27-.35.08-.2.08-.42 0-.32-.19-.53t-.51-.36-.73-.27q-.41-.13-.84-.27t-.84-.34q-.41-.19-.73-.49-.31-.3-.51-.73-.19-.43-.19-1.04 0-.57.22-1.08.23-.51.66-.9.44-.38 1.09-.61.66-.23 1.51-.23.96 0 1.74.32.78.31 1.3.82m1.85-.99h2.23v9.23h-2.23zm2.54-2.7q0 .29-.12.54-.12.26-.31.45-.19.18-.46.3-.26.11-.55.11t-.55-.11q-.25-.12-.44-.3-.19-.19-.31-.45-.11-.25-.11-.54t.11-.55q.12-.26.31-.45t.44-.3q.26-.12.55-.12t.55.12q.27.11.46.3t.31.45.12.55m3.88 3.1.16.73q.28-.28.59-.52t.65-.4q.35-.17.75-.26.39-.1.86-.1.76 0 1.34.26.59.25.98.72.39.46.59 1.11.2.64.2 1.41v5.88h-2.22v-5.88q0-.84-.39-1.31-.38-.46-1.17-.46-.58 0-1.08.26-.51.26-.96.71v6.68h-2.22v-9.23h1.36q.43 0 .56.4m11.61 3.99q.41 0 .72-.11.3-.12.5-.32.21-.19.31-.47t.1-.61q0-.69-.41-1.09t-1.22-.4q-.82 0-1.23.4t-.41 1.09q0 .32.1.6t.31.48q.2.2.51.32.31.11.72.11m2.51 5.25q0-.27-.17-.44-.16-.17-.44-.26-.28-.1-.65-.14-.37-.05-.79-.07l-.87-.04q-.44-.02-.86-.07-.37.2-.6.48t-.23.65q0 .25.12.46t.39.36q.26.15.69.24.42.09 1.03.09.62 0 1.07-.1.45-.09.74-.26.3-.17.43-.4.14-.23.14-.5m-.44-9.33h2.65v.83q0 .39-.48.48l-.82.16q.18.47.18 1.04 0 .69-.27 1.24t-.76.94-1.15.6-1.42.21q-.27 0-.53-.03-.25-.02-.49-.07-.43.26-.43.59 0 .27.25.41.26.13.68.18.43.05.97.07.54.01 1.1.06.57.04 1.11.15.54.12.96.36.43.24.68.66.26.42.26 1.08 0 .61-.3 1.18-.3.58-.88 1.03-.57.45-1.4.72-.83.28-1.89.28-1.05 0-1.82-.2-.78-.21-1.29-.54-.51-.34-.76-.78-.26-.44-.26-.92 0-.65.39-1.08.4-.44 1.08-.7-.37-.19-.58-.51-.22-.31-.22-.82 0-.21.08-.43.07-.22.22-.44.15-.21.37-.41.23-.19.54-.34-.71-.38-1.11-1.01t-.4-1.48q0-.68.28-1.24.27-.55.76-.94t1.16-.6 1.47-.21q.59 0 1.11.13.52.12.96.35"/></svg>